<?xml version="1.0" standalone="no"?>
<!DOCTYPE svg PUBLIC "-//W3C//DTD SVG 20010904//EN"
 "http://www.w3.org/TR/2001/REC-SVG-20010904/DTD/svg10.dtd">
<svg version="1.0" xmlns="http://www.w3.org/2000/svg"
 width="640.000000pt" height="640.000000pt" viewBox="0 0 640.000000 640.000000"
 preserveAspectRatio="xMidYMid meet">

<g transform="translate(0.000000,640.000000) scale(0.100000,-0.100000)"
fill="#fff" stroke="none">
<path d="M3128 4493 c-4 -1055 -4 -1036 10 -1041 9 -3 12 159 12 787 0 521 -3
791 -10 791 -7 0 -11 -187 -12 -537z"/>
<path d="M1515 4534 c-373 -37 -649 -223 -730 -491 -22 -73 -20 -246 5 -317
39 -114 144 -249 215 -276 31 -12 432 -14 439 -2 2 4 -10 14 -27 21 -278 119
-383 195 -442 320 -32 67 -43 179 -26 260 49 229 277 411 564 450 274 38 510
-32 678 -199 43 -43 91 -103 113 -143 21 -37 42 -67 47 -67 6 0 8 68 7 167
l-3 167 -50 17 c-87 29 -158 47 -230 59 -38 7 -91 16 -117 21 -52 10 -380 19
-443 13z"/>
<path d="M3477 4473 c-14 -13 -6 -23 17 -23 100 0 164 -88 185 -255 6 -50 13
-236 14 -414 2 -249 5 -325 15 -329 9 -3 12 88 12 432 0 240 4 436 8 436 4 0
16 -15 27 -32 10 -18 69 -109 130 -203 61 -93 156 -237 210 -320 54 -82 120
-184 148 -225 27 -41 56 -81 65 -87 18 -15 247 -18 256 -4 5 8 -36 72 -369
579 -88 133 -188 286 -222 338 -33 53 -67 101 -75 105 -15 10 -412 12 -421 2z"/>
<path d="M4880 4465 c0 -9 9 -15 23 -15 33 0 117 -44 154 -79 134 -130 215
-397 231 -765 5 -96 11 -151 18 -153 8 -3 13 100 17 369 6 392 12 451 55 535
26 51 63 78 122 90 105 21 36 28 -287 31 -292 2 -333 0 -333 -13z"/>
<path d="M670 3125 c0 -43 4 -75 10 -75 6 0 10 14 10 30 0 28 2 30 40 30 51 0
53 18 3 22 -30 2 -38 7 -38 23 0 16 8 21 43 23 61 5 52 22 -13 22 l-55 0 0
-75z"/>
<path d="M894 3187 c-9 -24 0 -142 11 -139 10 2 11 8 14 45 2 29 41 20 76 -19
18 -19 35 -31 39 -26 3 5 -4 19 -15 31 -19 21 -19 22 -2 51 27 46 10 64 -61
68 -41 2 -58 -1 -62 -11z m111 -32 c0 -16 -8 -21 -42 -23 -40 -3 -43 -2 -43
23 0 25 3 26 43 23 34 -2 42 -7 42 -23z"/>
<path d="M1166 3179 c-38 -30 -37 -90 3 -118 33 -24 53 -26 84 -9 56 29 65 94
18 127 -37 27 -71 27 -105 0z m104 -31 c13 -25 13 -31 0 -55 -30 -53 -110 -34
-110 25 0 63 79 84 110 30z"/>
<path d="M1417 3193 c-8 -14 -4 -144 5 -149 4 -3 8 17 8 45 0 27 3 52 8 54 4
3 18 -11 32 -30 70 -96 77 -94 72 16 -4 80 -22 88 -22 9 0 -51 0 -51 -19 -29
-10 12 -29 37 -42 56 -24 35 -34 41 -42 28z"/>
<path d="M1650 3191 c0 -5 12 -11 28 -13 26 -3 27 -6 30 -65 4 -83 22 -81 22
2 0 63 1 65 25 65 14 0 25 5 25 10 0 6 -28 10 -65 10 -36 0 -65 -4 -65 -9z"/>
<path d="M1890 3120 l0 -80 60 0 c33 0 60 4 60 10 0 6 -22 10 -50 10 -47 0
-50 2 -50 25 0 23 4 25 45 25 25 0 45 5 45 10 0 6 -20 10 -45 10 -41 0 -45 2
-45 25 0 23 3 25 50 25 28 0 50 5 50 10 0 6 -27 10 -60 10 l-60 0 0 -80z"/>
<path d="M2130 3125 c0 -85 17 -103 22 -22 l3 52 44 -57 c24 -32 47 -58 52
-58 5 0 9 36 9 80 0 47 -4 80 -10 80 -5 0 -10 -22 -10 -50 0 -27 -4 -50 -9
-50 -5 0 -26 23 -46 50 -20 28 -41 50 -46 50 -5 0 -9 -34 -9 -75z"/>
<path d="M2378 3168 c-2 -18 -1 -54 0 -80 4 -47 4 -48 39 -48 88 0 134 76 79
134 -18 21 -33 26 -69 26 -44 0 -46 -1 -49 -32z m109 -17 c9 -19 9 -31 -1 -55
-10 -26 -19 -32 -49 -34 l-37 -3 0 61 0 61 37 -3 c28 -2 41 -9 50 -27z"/>
<path d="M2760 3188 c0 -16 23 -82 31 -88 4 -3 9 -16 10 -30 5 -31 23 -29 27
2 2 13 8 27 13 33 5 5 9 17 9 27 0 30 25 20 38 -15 7 -18 12 -41 12 -50 0 -10
8 -17 20 -17 13 0 20 7 20 19 0 10 7 35 15 54 17 40 20 81 6 73 -7 -5 -21 -54
-25 -88 -1 -3 -4 -9 -7 -12 -9 -10 -24 15 -38 62 -13 46 -41 59 -41 18 0 -14
-4 -28 -10 -31 -5 -3 -10 -15 -10 -26 0 -39 -27 -18 -39 31 -11 45 -31 69 -31
38z"/>
<path d="M3080 3120 l0 -80 60 0 c33 0 60 4 60 10 0 6 -22 10 -50 10 -47 0
-50 2 -50 25 0 23 4 25 45 25 25 0 45 5 45 10 0 6 -20 10 -45 10 -41 0 -45 2
-45 25 0 23 3 25 50 25 28 0 50 5 50 10 0 6 -27 10 -60 10 l-60 0 0 -80z"/>
<path d="M3320 3120 l0 -80 43 0 c30 0 50 6 65 20 26 25 27 33 6 65 -10 15
-12 25 -5 25 16 0 14 16 -5 34 -9 10 -33 16 -60 16 l-44 0 0 -80z m90 45 c0
-10 -11 -15 -35 -15 -24 0 -35 5 -35 15 0 10 11 15 35 15 24 0 35 -5 35 -15z
m0 -50 c6 -8 9 -23 5 -35 -5 -15 -15 -20 -41 -20 -31 0 -34 3 -34 28 0 16 3
32 7 35 12 12 50 7 63 -8z"/>
<path d="M3714 3186 c-3 -7 -4 -42 -2 -77 3 -62 4 -64 32 -67 68 -8 106 20
106 78 0 53 -29 80 -87 80 -28 0 -46 -5 -49 -14z m106 -25 c26 -49 1 -101 -48
-101 -35 0 -39 10 -33 77 3 41 4 43 37 43 23 0 37 -6 44 -19z"/>
<path d="M3964 3186 c-3 -7 -4 -42 -2 -77 l3 -64 63 -3 c38 -2 62 1 62 8 0 5
-22 10 -50 10 -47 0 -50 2 -50 25 0 23 4 25 45 25 25 0 45 5 45 10 0 6 -20 10
-45 10 -41 0 -45 2 -45 25 0 23 3 25 50 25 28 0 50 5 50 10 0 16 -120 13 -126
-4z"/>
<path d="M4190 3193 c0 -16 46 -123 52 -123 13 0 9 25 -13 79 -19 44 -39 67
-39 44z"/>
<path d="M4300 3155 c-11 -26 -20 -50 -20 -54 0 -4 -9 -16 -20 -26 -11 -10
-17 -22 -14 -26 11 -19 24 -7 45 39 11 26 27 59 34 74 8 16 10 30 4 34 -5 3
-18 -16 -29 -41z"/>
<path d="M4440 3120 l0 -80 59 0 c75 0 90 18 19 22 -45 3 -53 6 -53 23 0 16 8
21 43 23 23 2 42 7 42 12 0 5 -19 10 -42 12 -35 2 -43 7 -43 23 0 17 8 20 48
23 68 4 58 22 -13 22 l-60 0 0 -80z"/>
<path d="M4680 3120 l0 -80 50 0 c28 0 50 5 50 10 0 6 -18 10 -40 10 l-40 0 0
70 c0 40 -4 70 -10 70 -6 0 -10 -33 -10 -80z"/>
<path d="M4918 3182 c-26 -16 -34 -37 -29 -82 3 -21 48 -60 71 -60 60 0 98 50
80 105 -17 52 -72 69 -122 37z m98 -39 c12 -28 11 -34 -7 -57 -50 -63 -129 5
-86 75 9 15 21 19 46 17 28 -2 37 -9 47 -35z"/>
<path d="M5159 3193 c-5 -55 -1 -148 6 -148 6 0 11 14 13 32 3 30 6 32 44 35
53 4 76 33 52 66 -12 18 -25 22 -65 22 -27 0 -49 -3 -50 -7z m96 -38 c0 -16
-8 -21 -37 -23 -35 -3 -38 -1 -38 23 0 24 3 26 38 23 29 -2 37 -7 37 -23z"/>
<path d="M5397 3193 c-2 -5 -3 -39 -3 -78 l1 -70 63 -3 c38 -2 62 1 62 8 0 5
-22 10 -50 10 -47 0 -50 2 -50 25 0 23 4 25 40 25 22 0 40 5 40 10 0 6 -18 10
-40 10 -36 0 -40 3 -40 25 0 23 4 25 45 25 25 0 45 5 45 10 0 11 -107 14 -113
3z"/>
<path d="M5637 3193 c-2 -5 -5 -38 -6 -75 -1 -55 1 -68 14 -68 10 0 15 10 15
30 0 24 4 30 20 30 20 0 70 -44 70 -61 0 -5 7 -6 15 -3 12 5 11 11 -7 35 -20
27 -20 30 -5 47 22 24 21 41 0 58 -19 14 -109 19 -116 7z m100 -24 c20 -20 3
-39 -36 -39 -44 0 -51 4 -44 31 6 22 61 27 80 8z"/>
<path d="M3545 3100 c3 -5 17 -10 30 -10 13 0 27 5 30 10 4 6 -8 10 -30 10
-22 0 -34 -4 -30 -10z"/>
<path d="M2238 2864 c-4 -3 10 -29 31 -58 71 -94 92 -157 92 -270 1 -158 -74
-299 -214 -403 -279 -207 -647 -191 -982 43 -112 78 -282 262 -361 390 -26 43
-35 1 -32 -162 l3 -159 85 -57 c182 -123 382 -204 573 -232 134 -20 189 -20
324 0 363 52 619 233 725 512 30 77 31 259 2 342 l-19 55 -111 3 c-60 1 -113
0 -116 -4z"/>
<path d="M3702 2853 c-8 -15 -12 -100 -12 -267 0 -264 -10 -371 -42 -454 -25
-64 -61 -96 -127 -112 -28 -7 -51 -16 -51 -21 0 -13 657 -12 665 1 3 5 -7 12
-22 15 -118 26 -191 91 -259 230 -64 134 -122 384 -125 541 0 27 -4 58 -8 69
-8 19 -8 19 -19 -2z"/>
<path d="M4697 2863 c-3 -5 18 -44 48 -88 29 -44 110 -168 180 -275 71 -107
174 -265 229 -350 56 -85 110 -167 119 -182 10 -16 24 -28 32 -28 13 0 15 61
15 459 0 420 -5 520 -24 445 -4 -14 -6 -125 -5 -245 1 -121 -1 -222 -3 -225
-3 -2 -79 107 -169 243 l-164 248 -127 3 c-69 1 -129 -1 -131 -5z"/>
<path d="M3120 2150 c0 -467 3 -710 10 -710 6 0 10 1 10 3 1 1 3 320 7 710 6
653 5 707 -10 707 -16 0 -17 -56 -17 -710z"/>
</g>
</svg>
